<svg xmlns="http://www.w3.org/2000/svg" width="16.03" height="10.66" viewBox="0 0 16.03 10.66">
  <g id="Group_626" data-name="Group 626" transform="translate(-550 18.075)">
    <g id="Group_6" data-name="Group 6" transform="translate(550 -18.075)">
      <g id="Group_1" data-name="Group 1" transform="translate(4.207 0.083)">
        <path id="Path_2" data-name="Path 2" d="M32.037,146.9c0-.266,0-.525,0-.782s0-.539-.006-.81c0-.106,0-.215,0-.321a4.284,4.284,0,0,0-.086-1.091,3.139,3.139,0,0,0-1.373-1.952,3.292,3.292,0,0,0-2.341-.387A3.039,3.039,0,0,0,26.2,142.9a3.253,3.253,0,0,0-.415,2.54,3.155,3.155,0,0,0,1.434,1.973,3.08,3.08,0,0,0,1.6.444h2.746a.479.479,0,0,0,.479-.48Zm-4.756-.608a2.332,2.332,0,0,1,.015-3.242,2.133,2.133,0,0,1,1.514-.615h.058a2.114,2.114,0,0,1,1.565.607,2.259,2.259,0,0,1,.676,1.635,2.3,2.3,0,0,1-.637,1.6,2.222,2.222,0,0,1-1.6.65h-.01A2.217,2.217,0,0,1,27.281,146.289Z" transform="translate(-25.686 -139.601)" fill="#fff"/>
        <path id="Path_3" data-name="Path 3" d="M447.273,34.22h0a.472.472,0,0,0-.543-.468,3.48,3.48,0,0,0-2.933,3.431v6.666a.473.473,0,0,0,.474.473h0a.473.473,0,0,0,.473-.473V38.595H446.8a.473.473,0,0,0,.474-.473h0a.473.473,0,0,0-.474-.473h-2.055v-.466a2.531,2.531,0,0,1,2.132-2.5A.472.472,0,0,0,447.273,34.22Z" transform="translate(-435.45 -33.746)" fill="#fff"/>
      </g>
      <g id="Group_2" data-name="Group 2" transform="translate(0)">
        <path id="Path_5" data-name="Path 5" d="M988.638-949.672a5.311,5.311,0,0,0-5.258-5.316,5.311,5.311,0,0,0-5.367,5.255,5.311,5.311,0,0,0,5.258,5.364c.085,0,.168,0,.252,0h3.806a1.309,1.309,0,0,0,1.309-1.309v-3.991Z" transform="translate(-978.012 954.988)" fill="#fff"/>
        <path id="Path_6" data-name="Path 6" d="M1125.458-810.388h0a3.283,3.283,0,0,0-3.285-3.281,3.288,3.288,0,0,0-3.284,3.281,3.283,3.283,0,0,0,3.284,3.281v.005h2.568a.717.717,0,0,0,.717-.716Zm-5.313,0a2.028,2.028,0,0,1,2.03-2.028,2.05,2.05,0,0,1,2.028,2.025,2.028,2.028,0,0,1-2.031,2.028A2.049,2.049,0,0,1,1120.145-810.386Z" transform="translate(-1116.86 815.704)"/>
      </g>
    </g>
  </g>
</svg>
