<svg xmlns="http://www.w3.org/2000/svg" width="96.002" height="32.069" viewBox="0 0 96.002 32.069">
  <g id="Group_968" data-name="Group 968" transform="translate(0)">
    <g id="Group_6" data-name="Group 6" transform="translate(0)">
      <g id="Group_1" data-name="Group 1" transform="translate(12.657 0)">
        <path id="Path_1" data-name="Path 1" d="M1246.656,171.871v.03a1.441,1.441,0,0,0,1.434,1.442h.031a8.344,8.344,0,0,0,4.628-1.559,8.774,8.774,0,0,0,3.514-4.6,15.441,15.441,0,0,0,.672-4.106l0-.3a30.229,30.229,0,0,0-.38-6.39,8.806,8.806,0,0,0-3.528-5.346,9.581,9.581,0,0,0-6.035-1.831,9.269,9.269,0,0,0-8.46,5.624,9.584,9.584,0,0,0-.584,6.248,9.967,9.967,0,0,0,3.594,5.425,9.4,9.4,0,0,0,5.269,1.8,7.94,7.94,0,0,0,5.226-1.392,21.517,21.517,0,0,0,1.668-1.5,6.522,6.522,0,0,1-1.449,2.713,9.071,9.071,0,0,1-4.419,2.324A1.448,1.448,0,0,0,1246.656,171.871Zm-5.846-13.123h0a6.475,6.475,0,0,1,6.4-6.6h.063a6.6,6.6,0,0,1,4.641,1.873,6.987,6.987,0,0,1,1.963,4.9,6.215,6.215,0,0,1-1.909,4.456,6.267,6.267,0,0,1-9.481-.232,5.89,5.89,0,0,1-1.677-4.339l0-.029Z" transform="translate(-1173.605 -142.863)" fill="#fff"/>
        <rect id="Rectangle_3" data-name="Rectangle 3" width="2.958" height="25.118" rx="1.479" transform="translate(35.94)" fill="#fff"/>
        <path id="Path_2" data-name="Path 2" d="M44.794,157.753c0-.8,0-1.58,0-2.351,0-.816-.006-1.622-.019-2.436,0-.318,0-.647,0-.965a12.888,12.888,0,0,0-.257-3.283,9.444,9.444,0,0,0-4.132-5.874,9.9,9.9,0,0,0-7.043-1.164,9.143,9.143,0,0,0-6.125,4.034,9.786,9.786,0,0,0-1.248,7.642,9.491,9.491,0,0,0,4.314,5.935,9.266,9.266,0,0,0,4.805,1.336h8.261a1.442,1.442,0,0,0,1.442-1.444Zm-14.31-1.83a7.017,7.017,0,0,1,.045-9.754,6.418,6.418,0,0,1,4.555-1.851l.155,0h.018a6.36,6.36,0,0,1,4.708,1.827A6.794,6.794,0,0,1,42,151.067a6.908,6.908,0,0,1-1.915,4.807,6.684,6.684,0,0,1-4.8,1.956h-.031A6.669,6.669,0,0,1,30.484,155.924Z" transform="translate(-25.686 -135.554)" fill="#fff"/>
        <path id="Path_3" data-name="Path 3" d="M454.253,35.172h0a1.421,1.421,0,0,0-1.633-1.409A10.468,10.468,0,0,0,443.8,44.085V64.141a1.424,1.424,0,0,0,1.424,1.424h0a1.424,1.424,0,0,0,1.424-1.424V48.334h6.182a1.424,1.424,0,0,0,1.424-1.424h0a1.424,1.424,0,0,0-1.424-1.424h-6.182v-1.4a7.616,7.616,0,0,1,6.415-7.509A1.419,1.419,0,0,0,454.253,35.172Z" transform="translate(-421.694 -33.495)" fill="#fff"/>
        <path id="Path_4" data-name="Path 4" d="M828.593,160.55a9.57,9.57,0,1,1,9.57-9.57A9.581,9.581,0,0,1,828.593,160.55Zm0-16.292a6.721,6.721,0,1,0,6.722,6.721A6.729,6.729,0,0,0,828.593,144.258Z" transform="translate(-777.085 -135.475)" fill="#fff"/>
      </g>
      <g id="Group_2" data-name="Group 2">
        <path id="Path_5" data-name="Path 5" d="M1009.979-938.994a15.979,15.979,0,0,0-15.819-15.993,15.979,15.979,0,0,0-16.147,15.809,15.979,15.979,0,0,0,15.818,16.138q.381,0,.758-.01h11.451a3.938,3.938,0,0,0,3.939-3.937v-12.007Z" transform="translate(-978.012 954.988)" fill="#fff"/>
        <path id="Path_6" data-name="Path 6" d="M1138.651-803.8h0a9.876,9.876,0,0,0-9.881-9.872,9.894,9.894,0,0,0-9.881,9.872,9.877,9.877,0,0,0,9.881,9.872v.016h7.724a2.156,2.156,0,0,0,2.157-2.155Zm-15.984,0a6.1,6.1,0,0,1,6.107-6.1,6.165,6.165,0,0,1,6.1,6.093,6.1,6.1,0,0,1-6.107,6.1A6.165,6.165,0,0,1,1122.667-803.793Z" transform="translate(-1112.787 819.791)"/>
      </g>
    </g>
  </g>
</svg>
