<svg id="Group_1896" data-name="Group 1896" xmlns="http://www.w3.org/2000/svg" width="70.516" height="70.516" viewBox="0 0 70.516 70.516">
  <g id="Group_1736" data-name="Group 1736">
    <g id="Group_1733" data-name="Group 1733">
      <g id="Group_571" data-name="Group 571">
        <path id="Path_2666" data-name="Path 2666" d="M35.258,0A35.258,35.258,0,1,1,0,35.258,35.258,35.258,0,0,1,35.258,0Z" fill="#424cfc"/>
        <g id="round-shopping_cart-24px" transform="translate(20.147 20.148)">
          <path id="Path_2661" data-name="Path 2661" d="M0,0H30.22V30.22H0Z" fill="none"/>
          <g id="round-local_mall-24px">
            <path id="Path_2908" data-name="Path 2908" d="M0,0H30.22V30.22H0Z" fill="none"/>
            <path id="Path_2909" data-name="Path 2909" d="M20.868,6.584H18.635a5.584,5.584,0,0,0-11.168,0H5.234A2.24,2.24,0,0,0,3,8.817v13.4a2.24,2.24,0,0,0,2.234,2.234H20.868A2.24,2.24,0,0,0,23.1,22.219V8.817A2.24,2.24,0,0,0,20.868,6.584Zm-7.817-3.35a3.346,3.346,0,0,1,3.35,3.35H9.7A3.346,3.346,0,0,1,13.051,3.234Zm0,11.168a5.574,5.574,0,0,1-5.405-4.188,1.118,1.118,0,0,1,1.083-1.4,1.162,1.162,0,0,1,1.094.893,3.348,3.348,0,0,0,6.455,0,1.162,1.162,0,0,1,1.094-.893,1.123,1.123,0,0,1,1.083,1.4A5.574,5.574,0,0,1,13.051,14.4Z" transform="translate(2.059 1.754)" fill="#fff"/>
          </g>
        </g>
      </g>
    </g>
  </g>
</svg>
