<svg xmlns="http://www.w3.org/2000/svg" width="24" height="24" viewBox="0 0 24 24">
  <g id="Group_1685" data-name="Group 1685" transform="translate(-0.087 -0.183)">
    <rect id="Rectangle_1152" data-name="Rectangle 1152" width="24" height="24" transform="translate(0.087 0.183)" fill="none"/>
    <path id="Path_2806" data-name="Path 2806" d="M10.143,6.959,8,9.817,9.634,12a.727.727,0,1,1-1.163.872c-.763-1.018-1.679-2.232-2.254-3.01a.73.73,0,0,0-1.163,0L2.146,13.735a.733.733,0,0,0,.582,1.17H15.813a.729.729,0,0,0,.582-1.163L11.306,6.959A.722.722,0,0,0,10.143,6.959Z" transform="translate(2.817 1.07)" fill="#555df0"/>
  </g>
</svg>
