<svg id="round-restaurant_menu-24px" xmlns="http://www.w3.org/2000/svg" width="23.997" height="23.997" viewBox="0 0 23.997 23.997">
  <path id="Path_8" data-name="Path 8" d="M0,0H24V24H0Z" fill="none"/>
  <path id="Path_9" data-name="Path 9" d="M8.1,13.339l2.83-2.83L4.74,4.33a1.006,1.006,0,0,0-1.61.27,4.016,4.016,0,0,0,.78,4.559Zm6.779-1.81a4.861,4.861,0,0,0,5.269-1.38c1.91-1.91,2.28-4.649.81-6.119s-4.2-1.1-6.119.81a4.861,4.861,0,0,0-1.38,5.269L4.4,19.168a1,1,0,0,0,1.41,1.41L12,14.408l6.179,6.179a1,1,0,0,0,1.41-1.41L13.408,13l1.47-1.47Z" transform="translate(0 0)" fill="#656cee"/>
</svg>
