<svg xmlns="http://www.w3.org/2000/svg" width="24" height="24" viewBox="0 0 24 24">
  <g id="Group_1689" data-name="Group 1689" transform="translate(-0.087 -0.174)">
    <rect id="Rectangle_1151" data-name="Rectangle 1151" width="24" height="24" transform="translate(0.087 0.174)" fill="none"/>
    <path id="toys-24px" d="M8.374,8.374a3.665,3.665,0,0,1,7.233-.84.677.677,0,0,1-.647.84Zm0,0a3.7,3.7,0,0,1-3.667,3.667A3.7,3.7,0,0,1,1.141,9.214a.677.677,0,0,1,.647-.84Zm0,0A3.7,3.7,0,0,1,4.707,4.707,3.7,3.7,0,0,1,7.534,1.141a.677.677,0,0,1,.84.647Zm0,0a3.665,3.665,0,0,1,.84,7.233.677.677,0,0,1-.84-.647Z" transform="translate(3.565 3.565)" fill="#555df0"/>
  </g>
</svg>
