<svg xmlns="http://www.w3.org/2000/svg" width="24" height="24" viewBox="0 0 24 24">
  <g id="Group_1688" data-name="Group 1688" transform="translate(-0.087 -0.4)">
    <rect id="Rectangle_1153" data-name="Rectangle 1153" width="24" height="24" transform="translate(0.087 0.4)" fill="none"/>
    <g id="menu_book-24px" transform="translate(4.835 4.834)">
      <g id="Bounding_Box" transform="translate(0 0)">
        <rect id="Rectangle_1142" data-name="Rectangle 1142" width="14" height="15" transform="translate(0.252 -0.435)" fill="none"/>
        <rect id="Rectangle_1143" data-name="Rectangle 1143" width="14" height="15" transform="translate(0.252 -0.435)" fill="none"/>
      </g>
      <path id="Path_2797" data-name="Path 2797" d="M14.359,4.214A6.612,6.612,0,0,0,11.6,3.7a5.973,5.973,0,0,0-3.532.963A5.973,5.973,0,0,0,4.532,3.7a6.612,6.612,0,0,0-2.762.514A1.269,1.269,0,0,0,1,5.37v7.258a1.244,1.244,0,0,0,1.606,1.22,9.915,9.915,0,0,1,1.927-.257,7.573,7.573,0,0,1,2.954.578,1.36,1.36,0,0,0,1.22,0,6.4,6.4,0,0,1,2.954-.578,6.63,6.63,0,0,1,1.927.257,1.272,1.272,0,0,0,1.606-1.22V5.37A1.448,1.448,0,0,0,14.359,4.214ZM7.037,11.15a.538.538,0,0,1-.514.385H6.395a8.017,8.017,0,0,0-3.532-.321c-.321,0-.578-.128-.578-.514,0-.321.128-.578.514-.578a10.612,10.612,0,0,1,4.046.385A.558.558,0,0,1,7.037,11.15Zm0-2.055a.538.538,0,0,1-.514.385H6.395a8.974,8.974,0,0,0-3.532-.321c-.321,0-.578-.128-.578-.514,0-.321.128-.578.514-.578a10.612,10.612,0,0,1,4.046.385A.606.606,0,0,1,7.037,9.095Zm0-1.927a.538.538,0,0,1-.514.385H6.395a8.4,8.4,0,0,0-3.6-.321c-.321,0-.578-.128-.578-.514,0-.321.128-.578.514-.578a9.473,9.473,0,0,1,4.046.321C6.909,6.462,7.166,6.847,7.037,7.168Zm6.23,4.046a8.974,8.974,0,0,0-3.532.321H9.606a.488.488,0,0,1-.514-.385.582.582,0,0,1,.385-.706,10.363,10.363,0,0,1,4.046-.385.562.562,0,0,1,.514.578C14.038,10.893,13.588,11.214,13.267,11.214Zm0-2.055a8.974,8.974,0,0,0-3.532.321H9.606a.488.488,0,0,1-.514-.385.582.582,0,0,1,.385-.706A10.363,10.363,0,0,1,13.524,8a.562.562,0,0,1,.514.578Q13.749,9.256,13.267,9.159Zm0-1.927a8.974,8.974,0,0,0-3.532.321H9.606a.488.488,0,0,1-.514-.385.582.582,0,0,1,.385-.706,10.363,10.363,0,0,1,4.046-.385.609.609,0,0,1,.514.578A.985.985,0,0,1,13.267,7.232Z" transform="translate(-0.813 -1.779)" fill="#555df0"/>
    </g>
  </g>
</svg>
