<svg id="round-local_mall-24px" xmlns="http://www.w3.org/2000/svg" width="19.992" height="19.992" viewBox="0 0 19.992 19.992">
  <path id="Path_2657" data-name="Path 2657" d="M0,0H19.992V19.992H0Z" fill="none"/>
  <path id="Path_2658" data-name="Path 2658" d="M16.328,5.165H14.662a4.165,4.165,0,1,0-8.33,0H4.666A1.671,1.671,0,0,0,3,6.831v10a1.671,1.671,0,0,0,1.666,1.666H16.328a1.671,1.671,0,0,0,1.666-1.666v-10A1.671,1.671,0,0,0,16.328,5.165ZM10.5,2.666a2.5,2.5,0,0,1,2.5,2.5H8A2.5,2.5,0,0,1,10.5,2.666Zm0,8.33A4.157,4.157,0,0,1,6.465,7.872a.834.834,0,0,1,.808-1.041A.867.867,0,0,1,8.09,7.5a2.5,2.5,0,0,0,4.815,0,.867.867,0,0,1,.816-.666.838.838,0,0,1,.808,1.041A4.157,4.157,0,0,1,10.5,11Z" transform="translate(-0.501 -0.167)"/>
</svg>
