<svg xmlns="http://www.w3.org/2000/svg" width="178.324" height="59.569" viewBox="0 0 178.324 59.569">
  <g id="Group_625" data-name="Group 625" transform="translate(-556 18.075)">
    <g id="Group_6" data-name="Group 6" transform="translate(556 -18.075)">
      <g id="Group_1" data-name="Group 1" transform="translate(23.511 0)">
        <path id="Path_1" data-name="Path 1" d="M1254.357,191.312v.055a2.676,2.676,0,0,0,2.664,2.679h.058a15.5,15.5,0,0,0,8.6-2.9,16.3,16.3,0,0,0,6.528-8.55,28.676,28.676,0,0,0,1.249-7.627l.007-.554a56.137,56.137,0,0,0-.706-11.87,16.358,16.358,0,0,0-6.554-9.931,17.8,17.8,0,0,0-11.21-3.4c-7.3.346-12.88,4.056-15.714,10.446a17.8,17.8,0,0,0-1.085,11.606,18.514,18.514,0,0,0,6.675,10.078,17.462,17.462,0,0,0,9.788,3.335,14.749,14.749,0,0,0,9.707-2.585,39.924,39.924,0,0,0,3.1-2.777,12.115,12.115,0,0,1-2.692,5.039,16.851,16.851,0,0,1-8.208,4.317A2.69,2.69,0,0,0,1254.357,191.312ZM1243.5,166.935h0a12.027,12.027,0,0,1,11.883-12.265h.118a12.257,12.257,0,0,1,8.62,3.48,12.978,12.978,0,0,1,3.647,9.1,11.546,11.546,0,0,1-3.546,8.277,11.641,11.641,0,0,1-17.611-.431,10.94,10.94,0,0,1-3.114-8.059l0-.054Z" transform="translate(-1118.666 -137.43)"/>
        <rect id="Rectangle_3" data-name="Rectangle 3" width="5.495" height="46.656" rx="2.747" transform="translate(66.759)"/>
        <path id="Path_2" data-name="Path 2" d="M61.179,171.7c0-1.488.009-2.935.007-4.368,0-1.515-.011-3.014-.035-4.525-.009-.591-.005-1.2,0-1.793a23.94,23.94,0,0,0-.478-6.1A17.542,17.542,0,0,0,53,144.005a18.394,18.394,0,0,0-13.082-2.163,16.984,16.984,0,0,0-11.377,7.493,18.178,18.178,0,0,0-2.318,14.2,17.63,17.63,0,0,0,8.014,11.024,17.212,17.212,0,0,0,8.926,2.482H58.5a2.678,2.678,0,0,0,2.678-2.682ZM34.6,168.3a13.034,13.034,0,0,1,.083-18.118,11.922,11.922,0,0,1,8.461-3.438c.1,0,.192,0,.289,0h.033a11.813,11.813,0,0,1,8.745,3.394,12.621,12.621,0,0,1,3.776,9.138,12.831,12.831,0,0,1-3.557,8.93,12.416,12.416,0,0,1-8.92,3.633H43.45A12.387,12.387,0,0,1,34.6,168.3Z" transform="translate(-25.686 -130.462)" fill="#fff"/>
        <path id="Path_3" data-name="Path 3" d="M463.219,36.395h0a2.639,2.639,0,0,0-3.033-2.617A19.445,19.445,0,0,0,443.8,52.952V90.2a2.645,2.645,0,0,0,2.646,2.644h0a2.645,2.645,0,0,0,2.646-2.644V60.844h11.484a2.645,2.645,0,0,0,2.646-2.644h0a2.645,2.645,0,0,0-2.646-2.644H449.089v-2.6A14.147,14.147,0,0,1,461.006,39,2.636,2.636,0,0,0,463.219,36.395Z" transform="translate(-402.741 -33.28)"/>
        <path id="Path_4" data-name="Path 4" d="M836.8,176.963a17.777,17.777,0,1,1,17.777-17.777A17.8,17.8,0,0,1,836.8,176.963Zm0-30.262a12.485,12.485,0,1,0,12.485,12.485A12.5,12.5,0,0,0,836.8,146.7Z" transform="translate(-741.123 -130.387)"/>
      </g>
      <g id="Group_2" data-name="Group 2" transform="translate(0)">
        <path id="Path_5" data-name="Path 5" d="M1037.39-925.28a29.68,29.68,0,0,0-29.384-29.707,29.682,29.682,0,0,0-29.993,29.366,29.68,29.68,0,0,0,29.382,29.976q.708.007,1.407-.019h21.271a7.314,7.314,0,0,0,7.316-7.312v-22.3Z" transform="translate(-978.012 954.988)"/>
        <path id="Path_6" data-name="Path 6" d="M1155.6-795.332h0a18.346,18.346,0,0,0-18.354-18.337,18.378,18.378,0,0,0-18.354,18.338,18.346,18.346,0,0,0,18.354,18.337v.029h14.348a4,4,0,0,0,4.006-4Zm-29.69.008a11.331,11.331,0,0,1,11.344-11.334,11.451,11.451,0,0,1,11.328,11.318,11.331,11.331,0,0,1-11.344,11.334A11.451,11.451,0,0,1,1125.907-795.324Z" transform="translate(-1107.554 825.04)" fill="#fefefe"/>
      </g>
    </g>
  </g>
</svg>
