<svg xmlns="http://www.w3.org/2000/svg" width="50.074" height="50.045" viewBox="0 0 50.074 50.045">
  <g id="Group_2122" data-name="Group 2122" transform="translate(0 0)">
    <path id="Path_5" data-name="Path 5" d="M1028.086-929.935a25.029,25.029,0,0,0-24.779-25.052,25.03,25.03,0,0,0-25.293,24.764,25.029,25.029,0,0,0,24.778,25.279q.6.006,1.187-.016h17.938a6.168,6.168,0,0,0,6.17-6.167v-18.809Z" transform="translate(-978.012 954.988)" fill="#555df0"/>
    <path id="Path_6" data-name="Path 6" d="M1149.845-798.205h0a15.471,15.471,0,0,0-15.478-15.464,15.5,15.5,0,0,0-15.478,15.464,15.471,15.471,0,0,0,15.478,15.464v.025h12.1a3.377,3.377,0,0,0,3.379-3.375Zm-25.038.007a9.556,9.556,0,0,1,9.567-9.558,9.657,9.657,0,0,1,9.553,9.544,9.555,9.555,0,0,1-9.567,9.558A9.657,9.657,0,0,1,1124.807-798.2Z" transform="translate(-1109.33 823.258)" fill="#fff"/>
  </g>
</svg>
