<svg xmlns="http://www.w3.org/2000/svg" width="339.202" height="299.921" viewBox="0 0 339.202 299.921">
  <g id="Group_2072" data-name="Group 2072" transform="translate(-912.423 -281.961)">
    <g id="Group_2049" data-name="Group 2049" transform="translate(976.795 281.961)">
      <g id="Group_2048" data-name="Group 2048">
        <path id="Rectangle_1308" data-name="Rectangle 1308" d="M0,0H222.275a0,0,0,0,1,0,0V240.908a10.01,10.01,0,0,1-10.01,10.01H10.01A10.01,10.01,0,0,1,0,240.908V0A0,0,0,0,1,0,0Z" transform="translate(0 19.995)" fill="#e9f2ff"/>
        <path id="Rectangle_1309" data-name="Rectangle 1309" d="M7.953,0H214.322a7.953,7.953,0,0,1,7.953,7.953V19.995a0,0,0,0,1,0,0H0a0,0,0,0,1,0,0V7.953A7.953,7.953,0,0,1,7.953,0Z" fill="#555df0"/>
      </g>
      <path id="Path_2918" data-name="Path 2918" d="M1117.584,290.673a2.131,2.131,0,1,1-2.131-2.13A2.131,2.131,0,0,1,1117.584,290.673Z" transform="translate(-936.774 -280.676)" fill="#fff"/>
      <path id="Path_2919" data-name="Path 2919" d="M1128.005,290.673a2.13,2.13,0,1,1-2.131-2.13A2.131,2.131,0,0,1,1128.005,290.673Z" transform="translate(-934.739 -280.676)" fill="#fff"/>
      <path id="Path_2920" data-name="Path 2920" d="M1138.426,290.673a2.131,2.131,0,1,1-2.131-2.13A2.131,2.131,0,0,1,1138.426,290.673Z" transform="translate(-932.704 -280.676)" fill="#fff"/>
    </g>
    <g id="Group_2051" data-name="Group 2051" transform="translate(918.403 428.839)">
      <path id="Path_2921" data-name="Path 2921" d="M961.506,441.438H937.324a2.487,2.487,0,0,0-2.483,2.607l3.82,78.828a2.486,2.486,0,0,0,2.483,2.366h16.542a2.486,2.486,0,0,0,2.482-2.366l3.821-78.828A2.487,2.487,0,0,0,961.506,441.438Z" transform="translate(-910.632 -372.196)" fill="#b3cbff"/>
      <g id="Group_2050" data-name="Group 2050">
        <path id="Path_2922" data-name="Path 2922" d="M943.724,397.811s-2.177-1.253-.7-5.957,10.133-4.83,10.978-6.505C955.1,391.8,946.789,400.053,943.724,397.811Z" transform="translate(-911.274 -367.505)" fill="#cfe0ff"/>
        <path id="Path_2923" data-name="Path 2923" d="M936.333,419.564s-.551-7.529-10.515-10.838-17.4,5.276-17.4,5.276,8.444,3.475,12.836,7.079S935.194,425.5,936.333,419.564Z" transform="translate(-908.423 -369.397)" fill="#cfe0ff"/>
        <path id="Path_2924" data-name="Path 2924" d="M935.135,390.118s-5.094,3.068-11.343-1.958-7.769-19.1-13.342-22.283C930.885,367.05,940.229,381.019,935.135,390.118Z" transform="translate(-908.593 -365.877)" fill="#cfe0ff"/>
        <path id="Path_2925" data-name="Path 2925" d="M948.752,441.367s-2.254-46.037-20.24-59.858" transform="translate(-910.103 -367.184)" fill="none" stroke="#b3cbff" stroke-linecap="round" stroke-linejoin="round" stroke-width="0.772"/>
        <path id="Path_2926" data-name="Path 2926" d="M946.392,428.524s-3.348-8.917-19.816-12.186" transform="translate(-909.941 -370.097)" fill="none" stroke="#b3cbff" stroke-linecap="round" stroke-linejoin="round" stroke-width="0.772"/>
        <path id="Path_2927" data-name="Path 2927" d="M944.048,407.212s-2.382-9.738,2.687-14.765" transform="translate(-911.356 -368.099)" fill="none" stroke="#b3cbff" stroke-linecap="round" stroke-linejoin="round" stroke-width="0.772"/>
      </g>
    </g>
    <g id="Group_2057" data-name="Group 2057" transform="translate(1080.774 339.629)">
      <rect id="Rectangle_1310" data-name="Rectangle 1310" width="106.508" height="73.48" rx="4.616" fill="#b3cbff"/>
      <g id="Group_2052" data-name="Group 2052" transform="translate(10.298 13.215)">
        <rect id="Rectangle_1311" data-name="Rectangle 1311" width="47.404" height="47.195" rx="2.976" fill="#668eff"/>
      </g>
      <g id="Group_2056" data-name="Group 2056" transform="translate(65.905 14.927)">
        <path id="Path_2928" data-name="Path 2928" d="M1133.7,348.906h-14.612a.726.726,0,0,1-.724-.725h0a.726.726,0,0,1,.724-.724H1133.7a.727.727,0,0,1,.724.724h0A.727.727,0,0,1,1133.7,348.906Z" transform="translate(-1112.65 -341.768)" fill="#00145e"/>
        <path id="Path_2929" data-name="Path 2929" d="M1133.7,353.772h-14.612a.726.726,0,0,1-.724-.724h0a.726.726,0,0,1,.724-.725H1133.7a.727.727,0,0,1,.724.725h0A.727.727,0,0,1,1133.7,353.772Z" transform="translate(-1112.65 -340.818)" fill="#00145e"/>
        <path id="Path_2930" data-name="Path 2930" d="M1133.7,358.638h-14.612a.726.726,0,0,1-.724-.724h0a.726.726,0,0,1,.724-.726H1133.7a.727.727,0,0,1,.724.726h0A.727.727,0,0,1,1133.7,358.638Z" transform="translate(-1112.65 -339.867)" fill="#00145e"/>
        <path id="Path_2931" data-name="Path 2931" d="M1133.7,363.5h-14.612a.726.726,0,0,1-.724-.726h0a.726.726,0,0,1,.724-.724H1133.7a.727.727,0,0,1,.724.724h0A.727.727,0,0,1,1133.7,363.5Z" transform="translate(-1112.65 -338.917)" fill="#00145e"/>
        <path id="Path_2932" data-name="Path 2932" d="M1133.7,368.371h-14.612a.726.726,0,0,1-.724-.724h0a.726.726,0,0,1,.724-.726H1133.7a.727.727,0,0,1,.724.726h0A.727.727,0,0,1,1133.7,368.371Z" transform="translate(-1112.65 -337.967)" fill="#00145e"/>
        <path id="Path_2933" data-name="Path 2933" d="M1133.7,373.237h-14.612a.725.725,0,0,1-.724-.724h0a.725.725,0,0,1,.724-.724H1133.7a.726.726,0,0,1,.724.724h0A.726.726,0,0,1,1133.7,373.237Z" transform="translate(-1112.65 -337.017)" fill="#00145e"/>
        <path id="Path_2934" data-name="Path 2934" d="M1133.7,378.1h-14.612a.726.726,0,0,1-.724-.726h0a.726.726,0,0,1,.724-.724H1133.7a.727.727,0,0,1,.724.724h0A.727.727,0,0,1,1133.7,378.1Z" transform="translate(-1112.65 -336.067)" fill="#00145e"/>
        <g id="Group_2055" data-name="Group 2055">
          <g id="Group_2053" data-name="Group 2053">
            <path id="Path_2935" data-name="Path 2935" d="M1114.274,349.075a.69.69,0,0,1-.69-.69v-5a.689.689,0,0,1,.69-.69h6.72a.69.69,0,0,1,0,1.379h-6.03v4.309A.691.691,0,0,1,1114.274,349.075Z" transform="translate(-1113.584 -342.697)" fill="#fff"/>
          </g>
          <g id="Group_2054" data-name="Group 2054" transform="translate(19.393 41.348)">
            <path id="Path_2936" data-name="Path 2936" d="M1137.219,383.668h-6.72a.69.69,0,0,1,0-1.379h6.03V377.98a.69.69,0,1,1,1.379,0v5A.689.689,0,0,1,1137.219,383.668Z" transform="translate(-1129.809 -377.29)" fill="#fff"/>
          </g>
        </g>
      </g>
    </g>
    <g id="Group_2058" data-name="Group 2058" transform="translate(989.289 314.996)">
      <rect id="Rectangle_1312" data-name="Rectangle 1312" width="67.086" height="103.759" rx="4.64" fill="#668eff"/>
      <path id="Path_2937" data-name="Path 2937" d="M1042.7,377.289h-39.973a.8.8,0,0,1-.8-.8h0a.8.8,0,0,1,.8-.8H1042.7a.8.8,0,0,1,.8.8h0A.8.8,0,0,1,1042.7,377.289Z" transform="translate(-989.169 -296.695)" fill="#fff"/>
      <path id="Path_2938" data-name="Path 2938" d="M1042.7,382.5h-39.973a.8.8,0,0,1-.8-.8h0a.8.8,0,0,1,.8-.8H1042.7a.8.8,0,0,1,.8.8h0A.8.8,0,0,1,1042.7,382.5Z" transform="translate(-989.169 -295.678)" fill="#fff"/>
      <path id="Path_2939" data-name="Path 2939" d="M1042.7,387.709h-39.973a.8.8,0,0,1-.8-.8h0a.8.8,0,0,1,.8-.8H1042.7a.8.8,0,0,1,.8.8h0A.8.8,0,0,1,1042.7,387.709Z" transform="translate(-989.169 -294.661)" fill="#fff"/>
      <path id="Path_2940" data-name="Path 2940" d="M1042.7,356.667h-39.973a.8.8,0,0,1-.8-.8h0a.8.8,0,0,1,.8-.8H1042.7a.8.8,0,0,1,.8.8h0A.8.8,0,0,1,1042.7,356.667Z" transform="translate(-989.169 -300.722)" fill="#fff"/>
      <path id="Path_2941" data-name="Path 2941" d="M1042.7,361.878h-39.973a.8.8,0,0,1-.8-.8h0a.8.8,0,0,1,.8-.8H1042.7a.8.8,0,0,1,.8.8h0A.8.8,0,0,1,1042.7,361.878Z" transform="translate(-989.169 -299.705)" fill="#fff"/>
      <path id="Path_2942" data-name="Path 2942" d="M1042.7,367.088h-39.973a.8.8,0,0,1-.8-.8h0a.8.8,0,0,1,.8-.8H1042.7a.8.8,0,0,1,.8.8h0A.8.8,0,0,1,1042.7,367.088Z" transform="translate(-989.169 -298.687)" fill="#fff"/>
      <path id="Path_2943" data-name="Path 2943" d="M1042.7,372.3h-39.973a.8.8,0,0,1-.8-.8h0a.8.8,0,0,1,.8-.8H1042.7a.8.8,0,0,1,.8.8h0A.8.8,0,0,1,1042.7,372.3Z" transform="translate(-989.169 -297.67)" fill="#fff"/>
      <rect id="Rectangle_1313" data-name="Rectangle 1313" width="55.382" height="35.546" rx="2.454" transform="translate(6.018 12.39)" fill="#555df0"/>
    </g>
    <g id="Group_2059" data-name="Group 2059" transform="translate(1123.417 516.408)">
      <path id="Path_2944" data-name="Path 2944" d="M1180,543.583h-85.556s-20.788-38.021,14.029-55.4c16.668-8.318,31.368-11.173,43.314-9.71,13,1.591,22.747,8.308,28.214,18.672C1190.487,517.034,1184.587,538.337,1180,543.583Z" transform="translate(-1088.285 -478.109)" fill="#b3cbff"/>
      <path id="Path_2945" data-name="Path 2945" d="M1133.784,539.757a53.725,53.725,0,0,0,8.06,3.826h-47.4s-20.788-38.021,14.029-55.4c16.668-8.318,31.368-11.173,43.314-9.71-.662,2.505-3.08,6.658-11.141,11.463C1127.443,497.8,1118.486,530.58,1133.784,539.757Z" transform="translate(-1088.285 -478.109)" opacity="0.25"/>
    </g>
    <g id="Group_2061" data-name="Group 2061" transform="translate(913.876 397.683)">
      <path id="Path_2946" data-name="Path 2946" d="M997.023,393.478c-.3.957-1.8,1.518-2.337,3.072-.229.672-1.664,4.483-3.434,8.741-2.332,5.606-5.247,11.992-6.769,13.018-1.365.919-4.713.7-7.67.271.714-2.552,1.113-4.906.953-5.27a1.08,1.08,0,0,0-.313-.262l0,0c-.625-.418-2.1-1.2-3.927-2.119a8.205,8.205,0,0,0-.593-3.118s1.99.176,4.11.35c2.308.2,4.777.4,4.989.4.409,0,10.98-16.469,11.224-17.781s1.394-7.867,1.885-8.032.547,9.044.6,9.343.52-2.024,1.09-2.156S997.322,392.522,997.023,393.478Z" transform="translate(-919.418 -378.005)" fill="#ffb199"/>
      <path id="Path_2947" data-name="Path 2947" d="M975.24,410.981c-.165.763-.892,1.108-1.7,1.25a8.671,8.671,0,0,1-2.557-.023l-6.368-4.014-1.007-6.392.934.157c2.612.451,9.807,1.715,10.208,2.124a8.207,8.207,0,0,1,.593,3.118A15.176,15.176,0,0,1,975.24,410.981Z" transform="translate(-921.238 -374.283)" fill="#2450ce"/>
      <path id="Path_2948" data-name="Path 2948" d="M983.983,410.785a30.174,30.174,0,0,1-.649,3.172c-.082.318-.17.649-.262.98l-.014.055c-.294,1.048-.638,2.129-1.021,3.117-.133.341-.267.667-.4.979a8.489,8.489,0,0,1-1.476,2.432c-3.356-.491-5.072-1.8-5.734-1.8-.142,1.251-.134,1.9-.258,2.544a5.223,5.223,0,0,1-.3.979,29.214,29.214,0,0,1-1.654,3.117c-.01.019-.019.032-.029.051a9.894,9.894,0,0,0-.5.984,22.006,22.006,0,0,0-1.131,3.167c-.092.323-.184.654-.267.985-.268,1.043-.492,2.119-.681,3.167-.06.331-.115.662-.17.984-.179,1.145-.313,2.23-.391,3.169-.027.349-.05.68-.06.984a8.528,8.528,0,0,0,.05,1.83c.11.557.221.989.313,1.339a9.362,9.362,0,0,1,.247.984,1.489,1.489,0,0,1-.1.874c-.037.092-.294.221-.736.372-3.448,1.192-17.973,3.873-22.7,3.072-5.325-.9-5.325-2.294-5-3.77.028-.115.079-.3.152-.547s.179-.593.3-.984c.156-.492.341-1.081.543-1.743.139-.442.281-.92.433-1.426.1-.317.192-.648.294-.984.289-.989.593-2.056.892-3.169.089-.321.176-.653.258-.984.271-1.039.528-2.1.767-3.167.074-.326.143-.657.212-.985.221-1.071.418-2.137.57-3.167.051-.331.092-.662.134-.984a25.6,25.6,0,0,0,.211-3.169c0-.165,0-.331-.01-.492s-.01-.322-.01-.486a15.236,15.236,0,0,1,.341-3.173c.069-.331.152-.657.239-.979a18.97,18.97,0,0,1,1.2-3.172c.161-.341.331-.667.506-.98a21.576,21.576,0,0,1,2.111-3.172c.294-.373.58-.7.832-.98a8.715,8.715,0,0,1,.929-.9,44.773,44.773,0,0,1,4.06-2.271c.6-.317,1.237-.644,1.89-.979,4.167-2.153,8.962-4.538,8.962-4.538s.809.381,2.083.979c1.857.883,4.694,2.235,7.407,3.56.023.008.046.023.069.032.653.322,1.3.634,1.912.947.147.069.286.142.428.212q.509.249.984.492c1.83.924,3.3,1.7,3.926,2.119l0,0a1.079,1.079,0,0,1,.313.262.4.4,0,0,1,.023.082A4.234,4.234,0,0,1,983.983,410.785Z" transform="translate(-925.662 -374.417)" fill="#668eff"/>
      <g id="Group_2060" data-name="Group 2060" transform="translate(15.558 31.236)" opacity="0.45">
        <path id="Path_2949" data-name="Path 2949" d="M975.891,405.891H953.567c.6-.317,1.237-.644,1.89-.979h18.452C974.584,405.243,975.251,405.569,975.891,405.891Z" transform="translate(-938.757 -404.912)" fill="#fff"/>
        <path id="Path_2950" data-name="Path 2950" d="M982.47,409.365H948.7c.294-.373.58-.7.832-.98H982.52A4.231,4.231,0,0,1,982.47,409.365Z" transform="translate(-939.708 -404.234)" fill="#fff"/>
        <path id="Path_2951" data-name="Path 2951" d="M982.249,411.859c-.082.318-.17.649-.262.98H946.508c.161-.341.331-.667.506-.98Z" transform="translate(-940.135 -403.556)" fill="#fff"/>
        <path id="Path_2952" data-name="Path 2952" d="M981.187,415.333c-.133.341-.267.667-.4.979H945.3c.069-.331.152-.657.239-.979Z" transform="translate(-940.37 -402.877)" fill="#fff"/>
        <path id="Path_2953" data-name="Path 2953" d="M973.371,418.807a5.222,5.222,0,0,1-.3.979H945.038c0-.165,0-.331-.01-.492s-.01-.322-.01-.486Z" transform="translate(-940.426 -402.199)" fill="#fff"/>
        <path id="Path_2954" data-name="Path 2954" d="M971.442,422.277a9.914,9.914,0,0,0-.5.984h-26.2c.052-.331.092-.662.134-.984Z" transform="translate(-940.479 -401.521)" fill="#fff"/>
        <path id="Path_2955" data-name="Path 2955" d="M969.943,425.75c-.092.323-.184.654-.267.985H944.092c.074-.326.143-.657.212-.985Z" transform="translate(-940.607 -400.843)" fill="#fff"/>
        <path id="Path_2956" data-name="Path 2956" d="M969.163,429.224c-.06.331-.115.662-.17.984H943.234c.088-.321.176-.653.258-.984Z" transform="translate(-940.774 -400.165)" fill="#fff"/>
        <path id="Path_2957" data-name="Path 2957" d="M968.8,432.7c-.028.349-.05.68-.06.984H942.242c.1-.317.193-.648.294-.984Z" transform="translate(-940.968 -399.487)" fill="#fff"/>
        <path id="Path_2958" data-name="Path 2958" d="M969.555,437.156H941.176c.079-.262.179-.593.3-.984h27.833A9.382,9.382,0,0,1,969.555,437.156Z" transform="translate(-941.176 -398.808)" fill="#fff"/>
      </g>
      <path id="Path_2959" data-name="Path 2959" d="M976.036,389.254a3.3,3.3,0,0,1-1.137.212c-2.142.008-2.956-2.424-4.064-1.66l-.042.027c-1.315.984-1.641,9.178-.547,12.125a8.539,8.539,0,0,1,.442,1.872,15.06,15.06,0,0,1-.268,5.058,14.369,14.369,0,0,1-1.838,4.653c-2.217,3.5-1.941,10.051-.63,17.156,1.3,7.066-5.5,13.044-22.77,7.522-.092-.032-.189-.06-.286-.092-4.18-1.357-6.138-3.641-6.635-6.414-1.573-8.82,11.642-22.581,15.049-27.239,4.479-6.121,2.322-8.589,2.2-14.08s1.228-9.058,6.842-9.55,6.231,1.969,6.231,1.969C977.622,375.322,979.1,388.159,976.036,389.254Z" transform="translate(-926.213 -378.779)" fill="#02113a"/>
      <path id="Path_2960" data-name="Path 2960" d="M969.78,392.071c-.216,3.453-1.15,7.444-4.23,8.308a8.543,8.543,0,0,0-.442-1.872c-.694-1.862-.814-5.826-.483-8.736.2-1.691.547-3.025,1.03-3.389,1.131-.851,1.936,1.641,4.106,1.633A31.453,31.453,0,0,1,969.78,392.071Z" transform="translate(-921.074 -377.329)" fill="#ffb199"/>
      <path id="Path_2961" data-name="Path 2961" d="M1003,541.272l-.041.087c-.612,1.164-3.868,1.747-4.852-.046-.01-.014-.013-.027-.023-.042-.984-1.885-23.928-54.818-29.34-64a166.45,166.45,0,0,0-10.484-15.726l0,0s-2.948,21.794-3.6,26.875c-.63,4.855-16.461,48.445-18.636,52.4-.1.184-.17.281-.211.289a12.856,12.856,0,0,1-2,.157c-1.242,0-2.589-.2-2.833-.979a1.809,1.809,0,0,1,.01-.5c.483-5.057,8.938-44.743,9.247-46.536.331-1.885.331-34.339.249-40.891a42.325,42.325,0,0,1,.914-8.363c.727-3.689,1.623-6.552,1.623-6.552-.326,1.476-.326,2.869,5,3.77,4.727.8,19.252-1.88,22.7-3.072q.635.911,1.255,1.854C995.331,475.35,1003.483,540.081,1003,541.272Z" transform="translate(-927.612 -367.322)" fill="#00145e"/>
      <path id="Path_2962" data-name="Path 2962" d="M941.708,534.8H928.162c-.11-1.747,3.371-11.725,3.371-11.725a1.81,1.81,0,0,0-.01.5c.41,1.315,3.931.984,4.833.822.042-.008.111-.105.211-.289C938.265,527.6,941.708,534.8,941.708,534.8Z" transform="translate(-928.16 -350.603)" fill="#668eff"/>
      <path id="Path_2963" data-name="Path 2963" d="M998.728,534.555H986.847l.354-10.208c.984,1.793,4.24,1.21,4.852.045A89.8,89.8,0,0,1,998.728,534.555Z" transform="translate(-916.701 -350.355)" fill="#668eff"/>
      <path id="Path_2964" data-name="Path 2964" d="M1006.7,400.709c-.565.685-9.481,14.558-14.428,21.473a20.527,20.527,0,0,1-3.109,3.84c-1.641.745-15.408-3.27-15.408-3.27,1.118-1.116,2.171-3.926,2.9-6.529.116-.414.226-.828.323-1.224s.184-.753.257-1.1c.027-.12.05-.234.074-.349s.05-.231.068-.341c.087-.436.152-.832.2-1.168.013-.082.023-.161.028-.234a2.266,2.266,0,0,0,0-.851,1.062,1.062,0,0,0-.294-.252c.087.041.4.188.864.409,1.683.791,5.338,2.515,7.334,3.458.735.349,1.25.593,1.355.648.492.244,13.849-12.538,14.586-13.523s1.15-6.882,1.967-6.882,1.145,2.046,1.145,2.046,9.178-.161,9.836.082S1007.433,399.807,1006.7,400.709Z" transform="translate(-919.258 -375.649)" fill="#ffb199"/>
      <path id="Path_2965" data-name="Path 2965" d="M957.8,458.171s-2.948,21.794-3.6,26.875c-.63,4.855-16.461,48.445-18.636,52.4-.1.184-.17.281-.211.289a12.849,12.849,0,0,1-2,.157c2.681-9.66,16.172-51.7,16.917-54.818.819-3.439.488-27.2,1.434-28.185S957.8,458.171,957.8,458.171Z" transform="translate(-927.148 -363.946)" opacity="0.25"/>
      <path id="Path_2966" data-name="Path 2966" d="M970.268,440c-4.446,2.353-11.453,6.249-18.792,6.134-6.207-.1-9.849-1.229-11.785-2.134.727-3.689,1.623-6.552,1.623-6.552-.326,1.476-.326,2.869,5,3.77,4.727.8,19.252-1.88,22.7-3.072Q969.648,439.062,970.268,440Z" transform="translate(-925.908 -367.322)" opacity="0.25"/>
      <path id="Path_2967" data-name="Path 2967" d="M962.578,443.76s27.861,57.021,32.615,94.8" transform="translate(-921.439 -366.091)" fill="none" stroke="#fff" stroke-miterlimit="10" stroke-width="0.769" opacity="0.25"/>
      <path id="Path_2968" data-name="Path 2968" d="M969.751,392.071c-1.453-1.247-2.805-3.159-3.55-3.081a3.736,3.736,0,0,0-1.605.782c.2-1.691.547-3.025,1.03-3.389,1.131-.851,1.936,1.641,4.106,1.633A31.431,31.431,0,0,1,969.751,392.071Z" transform="translate(-921.045 -377.329)" opacity="0.25"/>
      <path id="Path_2969" data-name="Path 2969" d="M991.252,401.607a85.683,85.683,0,0,1-5.582,11.633c-2.548-1.2-7.785-3.674-8.2-3.867l-.019-.01,0,0c-.625-.418-2.1-1.2-3.927-2.119a8.2,8.2,0,0,0-.593-3.118s1.99.176,4.11.35c1.651,2.184,3.986,5.039,5.425,5.724C983.983,410.923,988.286,405.617,991.252,401.607Z" transform="translate(-919.418 -374.321)" opacity="0.25"/>
      <path id="Path_2970" data-name="Path 2970" d="M992.269,419.585a20.526,20.526,0,0,1-3.109,3.84c-1.641.745-15.408-3.27-15.408-3.27,1.118-1.116,2.171-3.926,2.9-6.529.116-.414.226-.828.323-1.224s.184-.753.257-1.1c.027-.12.05-.234.074-.349s.05-.231.068-.341c.087-.436.152-.832.2-1.168.013-.083.023-.161.028-.234a2.266,2.266,0,0,0,0-.851,1.062,1.062,0,0,0-.294-.252c.087.041.4.188.864.409,0,2.689.1,10.1,1.232,11.233S987.009,422.869,992.269,419.585Z" transform="translate(-919.258 -373.053)" opacity="0.25"/>
      <path id="Path_2971" data-name="Path 2971" d="M976.26,405.455A8.5,8.5,0,0,0,970.288,409c-2.957,4.069,1.32,15.651-3.279,23.955-4.207,7.605-20.061,11.081-25.129,8.088.139-.442.281-.92.433-1.426.1-.317.192-.648.294-.984.289-.988.593-2.056.892-3.169.088-.322.176-.653.258-.984.244-.938.478-1.894.694-2.855,17.27,5.522,24.07-.455,22.77-7.522-1.311-7.1-1.587-13.657.63-17.156a14.37,14.37,0,0,0,1.838-4.653c1.807.859,4.2,2,6.5,3.127C976.214,405.431,976.237,405.446,976.26,405.455Z" transform="translate(-925.481 -374.187)" opacity="0.25"/>
      <path id="Path_2972" data-name="Path 2972" d="M970.225,398.507a8.547,8.547,0,0,1,.442,1.872,15.06,15.06,0,0,1-.268,5.058,14.37,14.37,0,0,1-1.838,4.653c-2.217,3.5-1.941,10.051-.63,17.156,1.3,7.066-5.5,13.044-22.77,7.522-.092-.032-.189-.06-.286-.092-4.18-1.357-6.138-3.641-6.635-6.414,1.03,1.449,2.828,2.653,5.968,2.7,7.988.11,6.186-12.346,11.73-19.449s8.1-25.483,14.2-25.3a1.811,1.811,0,0,1,.676.147l-.042.028C969.458,387.366,969.131,395.561,970.225,398.507Z" transform="translate(-926.192 -377.328)" opacity="0.25"/>
    </g>
    <g id="Group_2062" data-name="Group 2062" transform="translate(1070.698 447.164)">
      <path id="Path_2973" data-name="Path 2973" d="M1098.7,474.686s-17.755,5.135-19.393,5.026-17.263-20.869-17.263-20.869" transform="translate(-1040.69 -412.626)" fill="none" stroke="#00145e" stroke-linecap="round" stroke-linejoin="round" stroke-width="2.308"/>
      <path id="Path_2974" data-name="Path 2974" d="M1061.267,523.745a18.164,18.164,0,0,1-5.407-.4c-2.213-.655-10.817-4.261-11.637-3.6s10,13.931,13.193,15.733c2.459,0,5.619-7.548,7.622-9.067s-.984-3.061-.984-3.061Z" transform="translate(-1044.178 -400.751)" fill="#00145e"/>
      <path id="Path_2975" data-name="Path 2975" d="M1093.159,520.942a18.219,18.219,0,0,1-2.086,5.006c-1.319,1.893-7.452,8.924-7.088,9.909s16.371-5.1,19.088-7.565c.775-2.333-5.394-7.711-6.2-10.09s-3.215-.03-3.215-.03Z" transform="translate(-1036.409 -401.244)" fill="#00145e"/>
      <path id="Path_2976" data-name="Path 2976" d="M1125.64,487.477c-21.992,5.9-62.409,47.2-63.393,46.657-.492-.271-1.347-.381-2.129-.7a2.4,2.4,0,0,1-1.642-1.959c-.239-1.627,12.318-21.206,19.018-31.509,2.432-3.739,4.093-6.258,4.093-6.258l7.045-6.231s33.6-7.048,33.523-7.375S1147.632,481.578,1125.64,487.477Z" transform="translate(-1041.387 -408.482)" fill="#668eff"/>
      <path id="Path_2977" data-name="Path 2977" d="M1125.371,487.477c-21.992,5.9-62.409,47.2-63.393,46.657-.492-.271-1.347-.381-2.129-.7,4.267-4.938,15.413-18.1,16.805-22.195.966-2.833.856-7.61.57-11.274,2.433-3.739,4.093-6.258,4.093-6.258l7.045-6.231s33.6-7.048,33.523-7.375S1147.363,481.578,1125.371,487.477Z" transform="translate(-1041.118 -408.482)" opacity="0.25"/>
      <path id="Path_2978" data-name="Path 2978" d="M1138.715,484.311a19.024,19.024,0,0,1-1.8,1.247c-10.71,6.552-42.174,9.067-42.721,9.725s6.745,32.83,6.092,34.14-4.7,1.476-5.573,1.476-23.028-33.764-20.623-40.752,50.257-22.618,50.257-22.618l2.056.2,15.536,1.545S1146.945,477.837,1138.715,484.311Z" transform="translate(-1038.373 -410.93)" fill="#668eff"/>
      <path id="Path_2979" data-name="Path 2979" d="M1130.939,484.088c-3.931-1.09-8.258-4.869-9.993-7.825a17.638,17.638,0,0,0-7.213-6.719l2.1-.874a10.43,10.43,0,0,0,5.026,3.826c6.12,2.2,12.181,1.2,14.148-1.467C1135.969,473.94,1136.732,479.531,1130.939,484.088Z" transform="translate(-1030.597 -410.707)" opacity="0.25"/>
      <path id="Path_2980" data-name="Path 2980" d="M1117.354,458.93l-1.89,15.022-.06.491-4.041,1.859-21.854-2.732a40.09,40.09,0,0,0,6.12-.657c2.4-.543,11.693-3.494,12.709-4.367s1.6-15.734,1.6-15.734h2.626l4.11.984v.013Z" transform="translate(-1035.327 -413.804)" fill="#f99d85"/>
      <path id="Path_2981" data-name="Path 2981" d="M1113.341,456.444c-.06.529-.1.851-.1.851a12.987,12.987,0,0,1-4.267-.745,12.542,12.542,0,0,1-2.373-1.1c.166-6.065,2.327-14.379,2.327-14.379l2.505-1.765s.988,3.03,1.739,5.49v0c.39,1.282.717,2.414.8,2.865C1114.177,448.716,1113.584,454.293,1113.341,456.444Z" transform="translate(-1031.989 -416.441)" fill="#668eff"/>
      <path id="Path_2982" data-name="Path 2982" d="M1136.578,475.995a3.347,3.347,0,0,1-.6,1.32c-.956,1.3-2.888,2.2-5.328,2.529a18.913,18.913,0,0,1-8.82-1.063,10.353,10.353,0,0,1-3.057-1.724c-.082-.064-.161-.129-.239-.2a10.6,10.6,0,0,1-1.73-1.9c-2.216-3.085-2.97-7.2-3.493-10.6-.087-.565-.171-1.112-.249-1.632-.234-1.541-.639-3.32-1.1-5.2-.488-1.969-1.045-4.046-1.555-6.074-.551-2.193-1.048-4.327-1.342-6.2-.073-.478-.137-.933-.184-1.376-.575-5.324,2.281-7.384,2.281-7.384C1131.152,437.14,1137.314,472.385,1136.578,475.995Z" transform="translate(-1031.56 -416.992)" fill="#00145e"/>
      <path id="Path_2983" data-name="Path 2983" d="M1113.832,438.081c-.028,0-.06.014-.092.019a1.089,1.089,0,0,1-.52-.084c-1.857-.69-5.1-5.288-5.834-5.383-.672-.092-4.1,3.167-7.334,3.83a4.645,4.645,0,0,1-2.061,0,6.232,6.232,0,0,1-4.322-4.543c-.036-.133-.05-.212-.05-.212a10.4,10.4,0,0,0,2.46,0c-5.407-3.6-4.644-9.067-.547-11.527,1.095,4.971,4.7,5.352,6.176,4.971s3.715-3.334,7.265-2.9,3.112,4.483,3.112,4.483,1.5-1.122,3.141,1.228S1111.813,434.637,1113.832,438.081Z" transform="translate(-1034.794 -420.176)" fill="#02113a"/>
      <path id="Path_2984" data-name="Path 2984" d="M1114.285,439.49c-.16,1.187-2.712,4.259-3.282,4.056-.294-.105-.413-.414-.53-.745a1.824,1.824,0,0,0-.455-.855c-.491-.41-1.682-1.72-1.682-1.72s-1.145,1.8-1.762,1.967-1.678.2-4.589-2.584a12.315,12.315,0,0,1-3.209-5.181c3.232-.662,6.662-3.922,7.334-3.83a.713.713,0,0,1,.312.17c.879.69,2.86,3.264,4.461,4.556a4.141,4.141,0,0,0,1.061.657C1112.611,437.03,1114.212,438.971,1114.285,439.49Z" transform="translate(-1033.518 -418.141)" fill="#ffb199"/>
      <path id="Path_2985" data-name="Path 2985" d="M1120.83,456.431c-1.135,1.053-5.375.966-8.093.672-.381-.042-.731-.088-1.039-.134a3.6,3.6,0,0,1-1.32-.331,35.9,35.9,0,0,1-.235-5.743,51.073,51.073,0,0,1,.3-6.184c.027-.165.06-.331.092-.488,1.043-4.92,4.561-4.92,4.561-4.92C1120.173,439.8,1121.4,450.982,1120.83,456.431Z" transform="translate(-1031.298 -416.441)" fill="#668eff"/>
      <path id="Path_2986" data-name="Path 2986" d="M1126.515,453.633a177.607,177.607,0,0,1-2.561,19.877c-.9,4.189-2.032,7.436-3.421,7.656-4.1.657-30.159-5.241-31.142-5.407s-8.437,2.295-8.359,1.638,4.262-5.574,7.048-6.309,8.277,1.228,11.228,1.149c2.006-.055,6.549-.832,10.7-1.273a39.673,39.673,0,0,1,5.3-.286c-.226-3.521.759-16.838.759-16.838a3.6,3.6,0,0,0,1.32.331c.307.045.658.092,1.039.134C1121.14,454.6,1125.379,454.686,1126.515,453.633Z" transform="translate(-1036.983 -413.643)" fill="#ffb199"/>
      <path id="Path_2987" data-name="Path 2987" d="M1110.57,472.6a39.665,39.665,0,0,0-5.3.286c1.251-2.828,3.587-8.8,3.886-14.461.05-.942.073-1.857.078-2.749,0-.373,0-.74,0-1.1a89.135,89.135,0,0,1,.52-10.755h0c.294,1.875.791,4.009,1.342,6.2a35.873,35.873,0,0,0,.235,5.743S1110.345,469.074,1110.57,472.6Z" transform="translate(-1032.249 -415.561)" opacity="0.25"/>
      <path id="Path_2988" data-name="Path 2988" d="M1129.8,479.284a18.914,18.914,0,0,1-8.82-1.063,10.352,10.352,0,0,1-3.057-1.724,2.3,2.3,0,0,1-.134-.7v-.019s.134-9.356-.289-18.566q-.055-1.221-.124-2.429c-.575-9.917-4.253-15.142-4.253-15.142l.018,0a6.167,6.167,0,0,1,1.748-.29c8.074-.078,9.261,18.7,11.256,25.675C1127.806,470.846,1132.069,477.021,1129.8,479.284Z" transform="translate(-1030.716 -416.432)" opacity="0.25"/>
      <path id="Path_2989" data-name="Path 2989" d="M1124.142,477.4s-36.165,9.287-37.8,12.565,9.177,36.6,9.177,36.6" transform="translate(-1035.979 -409.003)" fill="none" stroke="#fff" stroke-miterlimit="10" stroke-width="0.769" opacity="0.25"/>
      <path id="Path_2990" data-name="Path 2990" d="M1106.422,430.768c-2.082,1.512-3.127,5.251-5.338,5.771a6.315,6.315,0,0,1-1.329.17,12.077,12.077,0,0,1-.979-2.281c3.232-.662,6.662-3.922,7.334-3.83A.713.713,0,0,1,1106.422,430.768Z" transform="translate(-1033.518 -418.141)" opacity="0.25"/>
      <path id="Path_2991" data-name="Path 2991" d="M1112.374,438.717c-.16,1.187-2.712,4.259-3.282,4.056-.294-.105-.413-.414-.529-.745.782-.795,2.106-2.667,2-4.12a7.652,7.652,0,0,0-1.591-3.356,4.143,4.143,0,0,0,1.061.657C1110.7,436.258,1112.3,438.2,1112.374,438.717Z" transform="translate(-1031.607 -417.369)" opacity="0.25"/>
      <path id="Path_2992" data-name="Path 2992" d="M1113.507,436.808a1.091,1.091,0,0,1-.52-.084c-1.857-.69-5.1-5.288-5.834-5.383-.672-.092-4.1,3.168-7.334,3.83a4.644,4.644,0,0,1-2.061,0,6.232,6.232,0,0,1-4.322-4.543c.4.378,1.352.861,3.652.883,3.77.037,6.556-4.63,9.71-4.713s3.445,2.355,3.445,2.355.226-1.6,2.087-1.127C1114.584,428.595,1111.5,434.955,1113.507,436.808Z" transform="translate(-1034.56 -418.884)" opacity="0.25"/>
    </g>
    <g id="Group_2063" data-name="Group 2063" transform="translate(1203.971 475.415)">
      <path id="Path_2993" data-name="Path 2993" d="M1172.027,488.5s-.619-8.222,8.339-9.425,15.188,4.371,19.777,3.606C1189.763,492.621,1176.469,497.595,1172.027,488.5Z" transform="translate(-1152.489 -436.96)" fill="#cfe0ff"/>
      <path id="Path_2994" data-name="Path 2994" d="M1173.812,475.168s-.568-6.068,6.971-16.284,6.446-15.072,6.446-15.072,7.321,11.3,1.311,22.5S1173.812,475.168,1173.812,475.168Z" transform="translate(-1152.14 -443.812)" fill="#cfe0ff"/>
      <path id="Path_2995" data-name="Path 2995" d="M1158.23,471.866a23.648,23.648,0,0,1,.867-15.743c3.5-8.3,22.618-10.809,22.618-10.809s-3.715,3.49-6.12,11.2S1164.9,471.975,1158.23,471.866Z" transform="translate(-1155.366 -443.519)" fill="#cfe0ff"/>
      <path id="Path_2996" data-name="Path 2996" d="M1155.695,493.087c0-.328-1.093-30.593,14.969-41.191" transform="translate(-1155.679 -442.234)" fill="none" stroke="#b3cbff" stroke-linecap="round" stroke-linejoin="round" stroke-width="0.769"/>
      <path id="Path_2997" data-name="Path 2997" d="M1157.89,493.729s-.984-6.119,10.379-14.423,19.449-16.279,20.213-21.742" transform="translate(-1155.252 -441.127)" fill="none" stroke="#b3cbff" stroke-linecap="round" stroke-linejoin="round" stroke-width="0.769"/>
      <path id="Path_2998" data-name="Path 2998" d="M1163.371,495.822s6.556-10.817,21.852-10.926" transform="translate(-1154.177 -435.79)" fill="none" stroke="#b3cbff" stroke-linecap="round" stroke-linejoin="round" stroke-width="0.769"/>
    </g>
    <g id="Group_2065" data-name="Group 2065" transform="translate(1169.873 318.755)">
      <circle id="Ellipse_215" data-name="Ellipse 215" cx="17.045" cy="17.045" r="17.045" fill="#cfe0ff"/>
      <circle id="Ellipse_216" data-name="Ellipse 216" cx="11.716" cy="11.716" r="11.716" transform="translate(5.328 5.329)" fill="#b3cbff"/>
      <g id="Group_2064" data-name="Group 2064" transform="translate(12.566 8.738)">
        <path id="Path_2999" data-name="Path 2999" d="M1141,335.734v-.147a.932.932,0,0,0-.81-.925,8.837,8.837,0,0,1-1.873-.448.935.935,0,0,1-.585-1.11l.142-.557a.93.93,0,0,1,1.237-.63,6.918,6.918,0,0,0,2.417.455c1.161,0,1.954-.448,1.954-1.262,0-.773-.651-1.262-2.157-1.771-2.179-.733-3.665-1.751-3.665-3.726a3.609,3.609,0,0,1,2.808-3.465.919.919,0,0,0,.632-.883v-.276a.934.934,0,0,1,.935-.933h.127a.934.934,0,0,1,.935.933h0a.935.935,0,0,0,.821.926,7.521,7.521,0,0,1,1.305.277.931.931,0,0,1,.62,1.124l-.122.476a.928.928,0,0,1-1.188.657,6.252,6.252,0,0,0-2.007-.323c-1.323,0-1.751.57-1.751,1.14,0,.672.712,1.1,2.443,1.751,2.422.856,3.4,1.976,3.4,3.808a3.758,3.758,0,0,1-2.954,3.611.911.911,0,0,0-.67.869v.429a.934.934,0,0,1-.935.934h-.127A.933.933,0,0,1,1141,335.734Z" transform="translate(-1137.664 -320.055)" fill="#cfe0ff"/>
      </g>
    </g>
    <g id="Group_2067" data-name="Group 2067" transform="translate(1013.821 449.458)">
      <rect id="Rectangle_1314" data-name="Rectangle 1314" width="55.75" height="71.401" rx="4.167" transform="translate(0 7.742)" fill="#233184"/>
      <circle id="Ellipse_217" data-name="Ellipse 217" cx="7.812" cy="7.812" r="7.812" transform="translate(20.063)" fill="#555df0"/>
      <path id="Path_3000" data-name="Path 3000" d="M1016.7,428.643l2.954,2.954,4.726-4.726" transform="translate(-992.666 -421.164)" fill="none" stroke="#e6eeff" stroke-linecap="round" stroke-linejoin="round" stroke-width="1.539"/>
      <g id="Group_2066" data-name="Group 2066" transform="translate(12.694 28.572)">
        <path id="Path_3001" data-name="Path 3001" d="M1036.861,447.424h-28.936a.714.714,0,0,1-.712-.711h0a.714.714,0,0,1,.712-.712h28.936a.714.714,0,0,1,.712.712h0A.714.714,0,0,1,1036.861,447.424Z" transform="translate(-1007.213 -446)" fill="#fff"/>
        <path id="Path_3002" data-name="Path 3002" d="M1036.861,453.549h-28.936a.714.714,0,0,1-.712-.712h0a.714.714,0,0,1,.712-.711h28.936a.714.714,0,0,1,.712.711h0A.714.714,0,0,1,1036.861,453.549Z" transform="translate(-1007.213 -444.804)" fill="#fff"/>
        <path id="Path_3003" data-name="Path 3003" d="M1021.292,459.674h-13.367a.715.715,0,0,1-.712-.712h0a.714.714,0,0,1,.712-.712h13.367a.714.714,0,0,1,.712.712h0A.715.715,0,0,1,1021.292,459.674Z" transform="translate(-1007.213 -443.608)" fill="#fff"/>
        <path id="Path_3004" data-name="Path 3004" d="M1036.861,465.8h-28.936a.714.714,0,0,1-.712-.712h0a.714.714,0,0,1,.712-.711h28.936a.714.714,0,0,1,.712.711h0A.714.714,0,0,1,1036.861,465.8Z" transform="translate(-1007.213 -442.412)" fill="#fff"/>
        <path id="Path_3005" data-name="Path 3005" d="M1028.613,471.923h-20.687a.714.714,0,0,1-.712-.712h0a.714.714,0,0,1,.712-.712h20.688a.715.715,0,0,1,.712.712h0A.715.715,0,0,1,1028.613,471.923Z" transform="translate(-1007.213 -441.217)" fill="#fff"/>
      </g>
    </g>
    <g id="Group_2069" data-name="Group 2069" transform="translate(912.423 361.638)">
      <path id="Path_3006" data-name="Path 3006" d="M969.536,367.116l-.035.017V354.141a5.535,5.535,0,0,0-5.518-5.519H932.461a5.534,5.534,0,0,0-5.517,5.519v17.33a5.533,5.533,0,0,0,5.517,5.517h30.69l4.721,4.722a.975.975,0,0,0,1.664-.69Z" transform="translate(-926.944 -348.622)" fill="#b3cbff"/>
      <g id="Group_2068" data-name="Group 2068" transform="translate(10.971 12.804)">
        <path id="Path_3007" data-name="Path 3007" d="M939.637,361.091a1.757,1.757,0,1,1-1.757-1.757A1.757,1.757,0,0,1,939.637,361.091Z" transform="translate(-936.123 -359.334)" fill="#00145e"/>
        <path id="Path_3008" data-name="Path 3008" d="M947.067,361.091a1.757,1.757,0,1,1-1.757-1.757A1.757,1.757,0,0,1,947.067,361.091Z" transform="translate(-934.672 -359.334)" fill="#00145e"/>
        <path id="Path_3009" data-name="Path 3009" d="M954.5,361.091a1.757,1.757,0,1,1-1.757-1.757A1.757,1.757,0,0,1,954.5,361.091Z" transform="translate(-933.222 -359.334)" fill="#00145e"/>
      </g>
    </g>
    <g id="Group_2071" data-name="Group 2071" transform="translate(1163.438 428.839)">
      <path id="Path_3010" data-name="Path 3010" d="M1121.768,423.339l.035.017V410.364a5.535,5.535,0,0,1,5.518-5.518h31.521a5.534,5.534,0,0,1,5.517,5.518v17.33a5.533,5.533,0,0,1-5.517,5.517h-30.69l-4.721,4.722a.975.975,0,0,1-1.664-.69Z" transform="translate(-1121.768 -404.845)" fill="#555df0"/>
      <g id="Group_2070" data-name="Group 2070" transform="translate(10.346 12.804)">
        <path id="Path_3011" data-name="Path 3011" d="M1145.283,417.314a1.757,1.757,0,1,0,1.757-1.757A1.757,1.757,0,0,0,1145.283,417.314Z" transform="translate(-1127.523 -415.557)" fill="#233184"/>
        <path id="Path_3012" data-name="Path 3012" d="M1137.853,417.314a1.757,1.757,0,1,0,1.757-1.757A1.757,1.757,0,0,0,1137.853,417.314Z" transform="translate(-1128.973 -415.557)" fill="#233184"/>
        <path id="Path_3013" data-name="Path 3013" d="M1130.424,417.314a1.757,1.757,0,1,0,1.757-1.757A1.757,1.757,0,0,0,1130.424,417.314Z" transform="translate(-1130.424 -415.557)" fill="#233184"/>
      </g>
    </g>
  </g>
</svg>
