<?xml version="1.0" encoding="utf-8"?>
<!-- Generator: Adobe Illustrator 23.0.3, SVG Export Plug-In . SVG Version: 6.00 Build 0)  -->
<svg version="1.1" id="Layer_1" xmlns="http://www.w3.org/2000/svg" xmlns:xlink="http://www.w3.org/1999/xlink" x="0px" y="0px"
	 viewBox="0 0 80 80" style="enable-background:new 0 0 80 80;" xml:space="preserve">
<style type="text/css">
	.st0{fill:#EEEEEE;}
	.st1{fill:none;}
	.st2{fill:#5D65EE;}
</style>
<g>
	<circle class="st0" cx="40" cy="40" r="40"/>
</g>
<path class="st1" d="M20,20h40v40H20V20z"/>
<g>
	<path class="st2" d="M40.3,40h3.4c1.9,0,3-1.1,3-2.5l0-3.4c0-4.3-3.1-7.5-6.9-7.4c-3.6,0.1-6.4,3-6.5,6.5
		C33.2,36.9,36.5,40,40.3,40z"/>
	<path class="st2" d="M40,43.3c-4.5,0-13.3,2.2-13.3,6.7v1.7c0,0.9,0.8,1.7,1.7,1.7h23.3c0.9,0,1.7-0.8,1.7-1.7V50
		C53.3,45.6,44.5,43.3,40,43.3z"/>
</g>
</svg>
