<svg xmlns="http://www.w3.org/2000/svg" width="24" height="24" viewBox="0 0 24 24">
  <g id="Group_1686" data-name="Group 1686" transform="translate(-0.087)">
    <rect id="Rectangle_1155" data-name="Rectangle 1155" width="24" height="24" transform="translate(0.087)" fill="none"/>
    <g id="Group_1304" data-name="Group 1304" transform="translate(3.6 9.223)">
      <path id="Path_2796" data-name="Path 2796" d="M16.426,165.039H15.91a2.326,2.326,0,0,0-.511-.786,2.173,2.173,0,0,0-1.088-.593,10.989,10.989,0,0,0-1.834-.1h-.006l-7.877,0h0a11.714,11.714,0,0,0-1.98.1,2.173,2.173,0,0,0-1.088.593,2.325,2.325,0,0,0-.511.786H.5a.5.5,0,0,0,0,.992h.31q0,.1,0,.2a3.221,3.221,0,0,0,2.772,3.421,3.76,3.76,0,0,0,2.886-.9A4.535,4.535,0,0,0,7.87,166.03H9.052a4.536,4.536,0,0,0,1.411,2.716,3.76,3.76,0,0,0,2.886.9,3.221,3.221,0,0,0,2.772-3.421q0-.1,0-.2h.31a.5.5,0,0,0,0-.992Zm-7.478,0H7.974c0-.058,0-.117.005-.176a1.165,1.165,0,0,0-.036-.309H8.978a1.165,1.165,0,0,0-.036.309C8.944,164.922,8.946,164.981,8.948,165.039Z" transform="translate(0 -163.561)" fill="#fff"/>
    </g>
  </g>
</svg>
