<svg id="round-restaurant_menu-24px" xmlns="http://www.w3.org/2000/svg" width="24" height="24" viewBox="0 0 24 24">
  <path id="Path_8" data-name="Path 8" d="M0,0H24V24H0Z" fill="none"/>
  <path id="Path_9" data-name="Path 9" d="M8.1,13.34l2.83-2.83L4.74,4.33a1.006,1.006,0,0,0-1.61.27,4.016,4.016,0,0,0,.78,4.56Zm6.78-1.81a4.862,4.862,0,0,0,5.27-1.38c1.91-1.91,2.28-4.65.81-6.12s-4.2-1.1-6.12.81a4.862,4.862,0,0,0-1.38,5.27L4.4,19.17a1,1,0,0,0,1.41,1.41L12,14.41l6.18,6.18a1,1,0,0,0,1.41-1.41L13.41,13l1.47-1.47Z" fill="#fff"/>
</svg>
