<svg id="round-local_mall-24px" xmlns="http://www.w3.org/2000/svg" width="16.009" height="16.009" viewBox="0 0 16.009 16.009">
  <path id="Path_2657" data-name="Path 2657" d="M0,0H16.009V16.009H0Z" fill="none"/>
  <path id="Path_2658" data-name="Path 2658" d="M13.673,4.335H12.339a3.335,3.335,0,1,0-6.67,0H4.334A1.338,1.338,0,0,0,3,5.669v8a1.338,1.338,0,0,0,1.334,1.334h9.339a1.338,1.338,0,0,0,1.334-1.334v-8A1.338,1.338,0,0,0,13.673,4.335ZM9,2.334a2,2,0,0,1,2,2H7A2,2,0,0,1,9,2.334ZM9,9A3.329,3.329,0,0,1,5.775,6.5a.668.668,0,0,1,.647-.834.694.694,0,0,1,.654.534,2,2,0,0,0,3.856,0,.694.694,0,0,1,.654-.534.671.671,0,0,1,.647.834A3.329,3.329,0,0,1,9,9Z" transform="translate(-0.999 -0.333)" fill="#555df0"/>
</svg>
