<svg id="round-star-24px" xmlns="http://www.w3.org/2000/svg" width="16" height="16" viewBox="0 0 16 16">
  <path id="Path_2651" data-name="Path 2651" d="M0,0H16V16H0Z" fill="none"/>
  <path id="Path_2652" data-name="Path 2652" d="M16.468,7.9l-3.843-.32L11.1,3.98a.781.781,0,0,0-1.441,0l-1.6,3.6L4.218,7.9a.845.845,0,0,0-.48,1.441L6.7,11.906l-.881,3.763a.809.809,0,0,0,1.2.881l3.363-2,3.363,2a.8.8,0,0,0,1.2-.881l-1.041-3.763,2.962-2.562A.827.827,0,0,0,16.468,7.9Z" transform="translate(-2.306 -2.27)" fill="#fc0"/>
</svg>
